<mxfile host="app.diagrams.net" modified="2023-06-21T23:57:10.107Z" agent="Mozilla/5.0 (Macintosh; Intel Mac OS X 10_15_7) AppleWebKit/537.36 (KHTML, like Gecko) Chrome/114.0.0.0 Safari/537.36" etag="H-b_4s9VuE61aCinBrOx" version="21.5.0" type="github">
  <diagram name="Page-1" id="TNCVf5kS6gqfiuI0d2p6">
    <mxGraphModel dx="1122" dy="725" grid="0" gridSize="10" guides="1" tooltips="1" connect="1" arrows="1" fold="1" page="1" pageScale="1" pageWidth="1169" pageHeight="1654" math="0" shadow="0">
      <root>
        <mxCell id="0" />
        <mxCell id="1" parent="0" />
        <mxCell id="rVVpyQ61FlN7RaaOpPG8-38" style="edgeStyle=orthogonalEdgeStyle;rounded=0;orthogonalLoop=1;jettySize=auto;html=1;entryX=0;entryY=0.5;entryDx=0;entryDy=0;" edge="1" parent="1" source="rVVpyQ61FlN7RaaOpPG8-3" target="rVVpyQ61FlN7RaaOpPG8-22">
          <mxGeometry relative="1" as="geometry" />
        </mxCell>
        <mxCell id="rVVpyQ61FlN7RaaOpPG8-3" value="Imbalanced&lt;br&gt;&amp;nbsp;Dataset" style="rounded=0;whiteSpace=wrap;html=1;" vertex="1" parent="1">
          <mxGeometry x="11" y="331.5" width="117" height="30" as="geometry" />
        </mxCell>
        <mxCell id="rVVpyQ61FlN7RaaOpPG8-10" value="Final &lt;br&gt;Prediction" style="rounded=0;whiteSpace=wrap;html=1;" vertex="1" parent="1">
          <mxGeometry x="774" y="440.5" width="95" height="43" as="geometry" />
        </mxCell>
        <mxCell id="rVVpyQ61FlN7RaaOpPG8-44" style="edgeStyle=orthogonalEdgeStyle;rounded=0;orthogonalLoop=1;jettySize=auto;html=1;entryX=0;entryY=0.25;entryDx=0;entryDy=0;" edge="1" parent="1" source="rVVpyQ61FlN7RaaOpPG8-14" target="rVVpyQ61FlN7RaaOpPG8-26">
          <mxGeometry relative="1" as="geometry" />
        </mxCell>
        <mxCell id="rVVpyQ61FlN7RaaOpPG8-14" value="Model 1" style="rounded=0;whiteSpace=wrap;html=1;" vertex="1" parent="1">
          <mxGeometry x="346" y="331.5" width="117" height="30" as="geometry" />
        </mxCell>
        <mxCell id="rVVpyQ61FlN7RaaOpPG8-50" style="edgeStyle=orthogonalEdgeStyle;rounded=0;orthogonalLoop=1;jettySize=auto;html=1;" edge="1" parent="1" source="rVVpyQ61FlN7RaaOpPG8-15" target="rVVpyQ61FlN7RaaOpPG8-10">
          <mxGeometry relative="1" as="geometry" />
        </mxCell>
        <mxCell id="rVVpyQ61FlN7RaaOpPG8-15" value="Attention Mechanism + Meta Model" style="whiteSpace=wrap;html=1;" vertex="1" parent="1">
          <mxGeometry x="648" y="391" width="71" height="142" as="geometry" />
        </mxCell>
        <mxCell id="rVVpyQ61FlN7RaaOpPG8-41" style="edgeStyle=orthogonalEdgeStyle;rounded=0;orthogonalLoop=1;jettySize=auto;html=1;" edge="1" parent="1" source="rVVpyQ61FlN7RaaOpPG8-22" target="rVVpyQ61FlN7RaaOpPG8-14">
          <mxGeometry relative="1" as="geometry" />
        </mxCell>
        <mxCell id="rVVpyQ61FlN7RaaOpPG8-22" value="Dataset&lt;br&gt;Augmentation&lt;br&gt;Dataset Balancing&lt;br&gt;Technique" style="rounded=1;whiteSpace=wrap;html=1;" vertex="1" parent="1">
          <mxGeometry x="181" y="310" width="112" height="73" as="geometry" />
        </mxCell>
        <mxCell id="rVVpyQ61FlN7RaaOpPG8-47" style="edgeStyle=orthogonalEdgeStyle;rounded=0;orthogonalLoop=1;jettySize=auto;html=1;entryX=0;entryY=0.5;entryDx=0;entryDy=0;" edge="1" parent="1" source="rVVpyQ61FlN7RaaOpPG8-26" target="rVVpyQ61FlN7RaaOpPG8-15">
          <mxGeometry relative="1" as="geometry" />
        </mxCell>
        <mxCell id="rVVpyQ61FlN7RaaOpPG8-26" value="Prediction 1" style="rounded=1;whiteSpace=wrap;html=1;" vertex="1" parent="1">
          <mxGeometry x="516" y="336" width="72" height="43" as="geometry" />
        </mxCell>
        <mxCell id="rVVpyQ61FlN7RaaOpPG8-39" style="edgeStyle=orthogonalEdgeStyle;rounded=0;orthogonalLoop=1;jettySize=auto;html=1;entryX=0;entryY=0.5;entryDx=0;entryDy=0;" edge="1" parent="1" source="rVVpyQ61FlN7RaaOpPG8-27" target="rVVpyQ61FlN7RaaOpPG8-29">
          <mxGeometry relative="1" as="geometry" />
        </mxCell>
        <mxCell id="rVVpyQ61FlN7RaaOpPG8-27" value="Imbalanced&lt;br&gt;&amp;nbsp;Dataset" style="rounded=0;whiteSpace=wrap;html=1;" vertex="1" parent="1">
          <mxGeometry x="11" y="447" width="117" height="30" as="geometry" />
        </mxCell>
        <mxCell id="rVVpyQ61FlN7RaaOpPG8-40" style="edgeStyle=orthogonalEdgeStyle;rounded=0;orthogonalLoop=1;jettySize=auto;html=1;" edge="1" parent="1" source="rVVpyQ61FlN7RaaOpPG8-28" target="rVVpyQ61FlN7RaaOpPG8-30">
          <mxGeometry relative="1" as="geometry" />
        </mxCell>
        <mxCell id="rVVpyQ61FlN7RaaOpPG8-28" value="Imbalanced&lt;br&gt;&amp;nbsp;Dataset" style="rounded=0;whiteSpace=wrap;html=1;" vertex="1" parent="1">
          <mxGeometry x="9" y="564" width="117" height="30" as="geometry" />
        </mxCell>
        <mxCell id="rVVpyQ61FlN7RaaOpPG8-42" style="edgeStyle=orthogonalEdgeStyle;rounded=0;orthogonalLoop=1;jettySize=auto;html=1;" edge="1" parent="1" source="rVVpyQ61FlN7RaaOpPG8-29" target="rVVpyQ61FlN7RaaOpPG8-34">
          <mxGeometry relative="1" as="geometry" />
        </mxCell>
        <mxCell id="rVVpyQ61FlN7RaaOpPG8-29" value="Dataset&lt;br&gt;Augmentation&lt;br&gt;Dataset Balancing&lt;br&gt;Technique" style="rounded=1;whiteSpace=wrap;html=1;" vertex="1" parent="1">
          <mxGeometry x="181" y="425.5" width="112" height="73" as="geometry" />
        </mxCell>
        <mxCell id="rVVpyQ61FlN7RaaOpPG8-43" style="edgeStyle=orthogonalEdgeStyle;rounded=0;orthogonalLoop=1;jettySize=auto;html=1;" edge="1" parent="1" source="rVVpyQ61FlN7RaaOpPG8-30" target="rVVpyQ61FlN7RaaOpPG8-35">
          <mxGeometry relative="1" as="geometry" />
        </mxCell>
        <mxCell id="rVVpyQ61FlN7RaaOpPG8-30" value="Dataset&lt;br&gt;Augmentation&lt;br&gt;Dataset Balancing&lt;br&gt;Technique" style="rounded=1;whiteSpace=wrap;html=1;" vertex="1" parent="1">
          <mxGeometry x="187" y="542.5" width="112" height="73" as="geometry" />
        </mxCell>
        <mxCell id="rVVpyQ61FlN7RaaOpPG8-45" style="edgeStyle=orthogonalEdgeStyle;rounded=0;orthogonalLoop=1;jettySize=auto;html=1;entryX=0;entryY=0.5;entryDx=0;entryDy=0;" edge="1" parent="1" source="rVVpyQ61FlN7RaaOpPG8-34" target="rVVpyQ61FlN7RaaOpPG8-36">
          <mxGeometry relative="1" as="geometry" />
        </mxCell>
        <mxCell id="rVVpyQ61FlN7RaaOpPG8-34" value="Model 1" style="rounded=0;whiteSpace=wrap;html=1;" vertex="1" parent="1">
          <mxGeometry x="343" y="447" width="117" height="30" as="geometry" />
        </mxCell>
        <mxCell id="rVVpyQ61FlN7RaaOpPG8-46" style="edgeStyle=orthogonalEdgeStyle;rounded=0;orthogonalLoop=1;jettySize=auto;html=1;entryX=0;entryY=0.5;entryDx=0;entryDy=0;" edge="1" parent="1" source="rVVpyQ61FlN7RaaOpPG8-35" target="rVVpyQ61FlN7RaaOpPG8-37">
          <mxGeometry relative="1" as="geometry" />
        </mxCell>
        <mxCell id="rVVpyQ61FlN7RaaOpPG8-35" value="Model 1" style="rounded=0;whiteSpace=wrap;html=1;" vertex="1" parent="1">
          <mxGeometry x="343" y="564" width="117" height="30" as="geometry" />
        </mxCell>
        <mxCell id="rVVpyQ61FlN7RaaOpPG8-48" style="edgeStyle=orthogonalEdgeStyle;rounded=0;orthogonalLoop=1;jettySize=auto;html=1;" edge="1" parent="1" source="rVVpyQ61FlN7RaaOpPG8-36" target="rVVpyQ61FlN7RaaOpPG8-15">
          <mxGeometry relative="1" as="geometry" />
        </mxCell>
        <mxCell id="rVVpyQ61FlN7RaaOpPG8-36" value="Prediction 2" style="rounded=1;whiteSpace=wrap;html=1;" vertex="1" parent="1">
          <mxGeometry x="521" y="440.5" width="72" height="43" as="geometry" />
        </mxCell>
        <mxCell id="rVVpyQ61FlN7RaaOpPG8-49" style="edgeStyle=orthogonalEdgeStyle;rounded=0;orthogonalLoop=1;jettySize=auto;html=1;entryX=0;entryY=0.5;entryDx=0;entryDy=0;" edge="1" parent="1" source="rVVpyQ61FlN7RaaOpPG8-37" target="rVVpyQ61FlN7RaaOpPG8-15">
          <mxGeometry relative="1" as="geometry" />
        </mxCell>
        <mxCell id="rVVpyQ61FlN7RaaOpPG8-37" value="Prediction 3" style="rounded=1;whiteSpace=wrap;html=1;" vertex="1" parent="1">
          <mxGeometry x="521" y="557.5" width="72" height="43" as="geometry" />
        </mxCell>
      </root>
    </mxGraphModel>
  </diagram>
</mxfile>
